<svg width="50" height="50" viewBox="0 0 65 65" fill="none" xmlns="http://www.w3.org/2000/svg"><circle cx="31.5" cy="31.5" r="31.5" fill="#FFEDB6"/><mask id="a" style="mask-type:alpha" maskUnits="userSpaceOnUse" x="0" y="0" width="63" height="63"><circle cx="31.5" cy="31.5" r="31.5" fill="#fff"/></mask><g clip-path="url(#b)" mask="url(#a)"><path d="M48.66 60.172c-4.169 1.9 1.348 7.031 1.573 10.27.17 2.446 3.55 8.04-1.761 8.991-4.537.814-15.632-6.536-17.361-11.553-.453 4.1-7.008 12.847-10.524 12.95-4.836.142-4.832-5.971-5.99-8.112-1.734-3.204-.383-10.59-2.995-11.188-.508-.116-1.584-1.252-2.271-1.34-.216-4.904-.524-7.964-.71-12.923.963-.928 3.135-2.703 4.1-3.187 3.256-1.632 3.75-1.163 3.86-4.433.08-2.314 1.145-6.7 1.456-8.177 1.25-5.937 8.312-19.118 15.453-19.743 6.22 1.4 10.422 15.96 11.408 21.636.206 1.184.552 4.386.542 6.327-.017 2.89.843 2.73 3.592 3.974" fill="#FEBD33"/><path d="M20.423 81.456c-3.937 0-4.975-3.798-5.665-6.325-.228-.839-.446-1.634-.708-2.118-.812-1.497-.988-3.708-1.16-5.847-.181-2.247-.387-4.79-1.425-5.03-.353-.08-.723-.356-1.152-.676-.314-.233-.837-.623-1.062-.652a.622.622 0 0 1-.542-.59c-.1-2.267-.22-4.161-.338-5.992-.14-2.195-.272-4.267-.374-6.934a.62.62 0 0 1 .191-.471c1.003-.966 3.21-2.772 4.255-3.297.588-.295 1.098-.528 1.507-.715 1.859-.847 1.932-.88 2.01-3.183.067-1.98.812-5.322 1.257-7.32.087-.388.16-.718.211-.965 1.174-5.567 8.233-19.554 16.008-20.237a.589.589 0 0 1 .19.013c6.83 1.536 10.973 16.881 11.884 22.136.193 1.114.563 4.394.55 6.438-.012 2.032.268 2.15 2.083 2.909.337.14.717.299 1.144.492l-.513 1.136a44 44 0 0 0-1.11-.478c-2.038-.851-2.864-1.308-2.85-4.066.013-1.972-.346-5.141-.53-6.217-1.052-6.055-5.234-19.71-10.838-21.11-6.84.718-13.628 13.683-14.799 19.242-.052.25-.126.585-.216.98-.407 1.825-1.165 5.224-1.227 7.09-.1 2.964-.606 3.306-2.739 4.276-.421.191-.897.41-1.466.694-.834.42-2.736 1.954-3.746 2.89.1 2.517.227 4.512.362 6.62.11 1.721.222 3.496.32 5.585.375.173.753.455 1.12.73.23.17.572.425.694.462 1.925.44 2.147 3.21 2.384 6.142.162 2.01.328 4.089 1.013 5.356.33.61.555 1.43.814 2.381.852 3.115 1.724 5.499 4.612 5.405 1.373-.04 3.704-1.9 5.939-4.738 2.182-2.774 3.783-5.852 3.985-7.658a.62.62 0 0 1 .55-.55.627.627 0 0 1 .658.415c.745 2.16 3.642 5.162 7.384 7.645 3.715 2.47 7.359 3.842 9.28 3.497 1.052-.189 1.744-.571 2.115-1.169.738-1.19.144-3.225-.336-4.859-.25-.853-.484-1.657-.53-2.307-.068-1-.778-2.334-1.465-3.623-1.012-1.9-2.058-3.867-1.512-5.474.26-.766.855-1.366 1.767-1.781l.517 1.134c-.596.272-.957.614-1.105 1.048-.371 1.099.544 2.822 1.433 4.49.783 1.47 1.52 2.856 1.61 4.121.035.515.253 1.256.483 2.043.548 1.873 1.23 4.203.2 5.866-.56.903-1.554 1.489-2.955 1.74-2.694.482-7.03-1.586-10.19-3.685-2.58-1.715-5.55-4.226-7.086-6.684-.673 1.922-2.052 4.319-3.819 6.561-1.215 1.543-4.315 5.137-6.881 5.214h-.191Z" fill="#E4A92D"/><path d="M53.403 61.636c-.895-.193-1.049-.047-1.746.395-.77.49-.056 3.548-.642 4.406-1.225 1.792-5.87-1.944-13.032-1.802h-13.58c-7.161-.142-11.806 3.594-13.031 1.802-.586-.855.13-3.916-.642-4.406-.417-.264-.87-1.898-1.414-1.821.245-5.355-.251-9.087-.995-14.442 1.475-.793 3.028-1.595 4.118-2.36 4.55-3.199 8.102 2.48 16.238 3.803 1.67.272 3.592.272 5.035 0 8.096-1.524 11.686-7.004 16.238-3.804 1.281.901 2.58 1.852 4.265 2.779" fill="#fff"/><path d="M49.95 67.546c-.864 0-1.958-.343-3.258-.752-2.166-.679-5.131-1.61-8.696-1.538H24.403c-3.575-.071-6.543.86-8.708 1.538-2.31.725-3.979 1.248-4.838-.008-.385-.563-.374-1.51-.362-2.515.007-.565.017-1.505-.126-1.736-.295-.201-.495-.581-.723-1.017-.1-.191-.274-.525-.395-.673l-.591.083.033-.75c.247-5.415-.272-9.152-.988-14.327l-.06-.43.963-.517c1.256-.67 2.556-1.366 3.472-2.01 2.967-2.084 5.629-.745 8.712.804 2.203 1.107 4.7 2.363 7.982 2.896 1.599.26 3.447.262 4.82.003 3.18-.6 5.633-1.817 7.797-2.893 3.295-1.636 5.897-2.93 8.914-.81l.436.308c1.136.801 2.309 1.63 3.77 2.435l-.6 1.093c-1.523-.84-2.726-1.689-3.889-2.509l-.433-.305c-2.411-1.694-4.492-.66-7.644.905-2.124 1.057-4.77 2.372-8.12 3.003-1.506.284-3.518.284-5.252.002-3.472-.565-6.174-1.923-8.343-3.013-3.059-1.539-5.081-2.554-7.436-.897-.978.687-2.311 1.4-3.6 2.089l-.198.106c.652 4.71 1.157 8.538.957 13.688.33.261.571.718.791 1.142.104.197.258.492.337.577.68.455.668 1.528.654 2.77-.008.62-.019 1.557.145 1.796.339.494 1.773.044 3.437-.478 2.248-.706 5.33-1.673 9.093-1.596h13.567c3.754-.07 6.834.89 9.082 1.596 1.664.522 3.098.972 3.437.478.162-.237.151-1.175.145-1.796-.014-1.254-.027-2.336.677-2.785l.114-.072c.696-.445 1.049-.631 2.097-.403l-.263 1.217c-.594-.13-.615-.114-1.163.236l-.09.058c-.142.233-.132 1.172-.126 1.736.013 1.003.023 1.952-.361 2.513-.372.548-.904.758-1.576.758Z" fill="#CCC"/><path d="M31.34 71.089c-1.368.708-1.746 2.529-2.296 3.928-.243.619-.619 1.813-1.537 1.815-1.144 0-.945-.214-2.01-1.017-4.425-3.346-9.43.656-12.41-1.87-.78-.66.259-1.714-.06-2.624-.543-1.545-2.503-3.173-2.22-4.923.234-1.447 1.243-.783 1.85-2.8.535-1.777.488-5.502.286-8.076-.28-3.618-.448-7.877-1.333-11.629-.052-.222-.664-.542-.284-1.042.57-.752 2.76-1.773 3.918-1.501 1.156.272 1.117 2.494 1.26 3.195.397 1.965-.554 7.652 1.562 8.589 5.232 2.313 19.535 2.2 24.938-.104 1.844-.787 2.31-6.529 2.8-8.5.177-.705.263-2.74 1.367-2.995 1.105-.256 3.505.77 4.033 1.565.35.53-.276.77-.368.99-1.478 3.564-2.24 7.598-3.131 11.166-.677 2.71-.976 5.57.509 7.415 1.138 1.412 2.12.643 2.726 1.77.733 1.363.498 3.022.949 4.353.266.785.785 1.827.527 2.4-.988 2.2-8.893 2.883-11.732 5.156-.683.549-1.19 1.252-2.406 1.234-.976-.017-2.08-.993-2.635-1.715-1.256-1.635-2.28-3.649-3.9-4.72-.224-.154-.214-.158-.403-.06Z" fill="#45566A"/><path d="M38.328 78.202h-.06c-1.292-.02-2.57-1.242-3.12-1.958-.367-.478-.714-.986-1.052-1.48-.82-1.2-1.595-2.334-2.61-3.043-.796.507-1.182 1.61-1.556 2.677-.097.28-.199.571-.307.845l-.058.152c-.274.718-.785 2.057-2.058 2.057h-.002c-.978 0-1.25-.166-1.777-.637-.15-.133-.335-.3-.609-.507-2.174-1.644-4.512-1.347-6.775-1.06-2.095.265-4.074.516-5.663-.831-.743-.632-.506-1.479-.35-2.041.09-.33.178-.642.105-.856-.172-.494-.537-1.034-.924-1.605-.722-1.067-1.54-2.276-1.32-3.624.151-.936.608-1.274.974-1.546.326-.241.635-.47.893-1.334.48-1.592.477-5.089.261-7.849-.05-.629-.095-1.279-.141-1.94-.214-3.039-.455-6.477-1.159-9.511l-.035-.042c-.486-.562-.538-1.102-.158-1.605.681-.897 3.09-2.074 4.556-1.731 1.36.32 1.549 2.105 1.663 3.172.02.204.042.397.064.507.133.66.13 1.611.125 2.714-.008 1.966-.02 4.94 1.078 5.426 4.996 2.209 19.157 2.147 24.442-.108 1.104-.472 1.737-4.178 2.078-6.167.13-.769.245-1.431.363-1.909.027-.11.056-.288.088-.477.166-1.001.442-2.672 1.742-2.974 1.4-.324 4.03.831 4.69 1.83.362.544.262 1.082-.29 1.592a.874.874 0 0 0-.046.044c-1.113 2.7-1.809 5.667-2.483 8.54-.202.858-.39 1.67-.594 2.475-.83 3.327-.706 5.511.39 6.873.461.574.843.675 1.288.796.481.13 1.081.29 1.503 1.073.482.897.587 1.853.691 2.776.067.605.131 1.176.3 1.67.051.154.114.32.178.488.299.787.637 1.676.326 2.37-.646 1.438-3.169 2.184-6.088 3.045-2.261.669-4.6 1.36-5.82 2.338-.12.096-.235.2-.35.3-.533.483-1.2 1.075-2.393 1.075Zm-6.81-7.801c.188 0 .35.077.54.205l.03.02c1.26.834 2.163 2.156 3.038 3.436.328.48.666.973 1.01 1.424.543.704 1.481 1.46 2.152 1.47h.042c.718 0 1.075-.318 1.567-.756.13-.114.26-.23.397-.34 1.414-1.134 3.87-1.859 6.246-2.56 2.294-.68 4.894-1.448 5.305-2.364.1-.22-.195-.996-.355-1.414a17.71 17.71 0 0 1-.195-.529c-.212-.623-.287-1.29-.357-1.933-.094-.843-.183-1.639-.55-2.324-.158-.293-.301-.344-.73-.459-.512-.139-1.216-.328-1.932-1.216-1.79-2.222-1.215-5.605-.627-7.955.199-.798.388-1.603.587-2.457.692-2.942 1.404-5.986 2.57-8.796.08-.189.215-.315.325-.417l.054-.05c-.486-.59-2.523-1.43-3.327-1.244-.488.113-.695 1.363-.793 1.965-.037.224-.069.417-.108.575-.108.432-.218 1.073-.345 1.817-.593 3.482-1.216 6.422-2.817 7.103-5.617 2.395-20.117 2.453-25.435.1-1.844-.816-1.831-3.875-1.82-6.572.003-.99.008-1.927-.1-2.463-.034-.166-.056-.378-.084-.62-.068-.642-.21-1.975-.71-2.091-.857-.202-2.739.65-3.241 1.225.023.029.05.06.07.083.104.12.235.272.285.486.741 3.15.988 6.678 1.208 9.79.046.66.092 1.306.142 1.933.207 2.664.249 6.44-.312 8.304-.378 1.258-.936 1.671-1.345 1.975-.295.218-.415.307-.486.743-.14.86.502 1.809 1.123 2.726.413.613.841 1.244 1.07 1.892.203.581.045 1.146-.081 1.601-.156.556-.15.666-.044.756 1.169.992 2.805.785 4.701.544 2.392-.303 5.104-.648 7.683 1.304.313.237.53.43.687.57.349.312.357.32.935.32.423.009.724-.78.907-1.256l.062-.164c.1-.25.193-.519.291-.801.453-1.296.968-2.764 2.299-3.453l.286.554-.284-.554c.182-.092.33-.133.467-.133Zm-.178.687.283.544-.283-.544Z" fill="#394457"/><path d="M31.574 71.319c-1.398.695-1.78 2.53-2.339 3.922-.247.615-.656 1.821-1.596 1.827-1.174.007-.962-.216-2.054-1.017-4.537-3.327-9.716.656-12.743-1.865-.791-.658-.79-2.12-1.117-3.038-.56-1.557-1.539-2.722-1.256-4.504.234-1.472 1.29-.708 1.906-2.799.544-1.846.425-5.336.278-8.11-.21-3.898 2.57-3.335 5.025-2.388 6.072 2.344 19.803 2.267 26-.11 2.113-.812 5.684-2.176 4.655 2.14-.781 3.28-.914 5.443.58 7.488 1.147 1.566 2.169.623 2.804 1.788.768 1.408.355 3.007.806 4.354.266.796.158 1.842-.104 2.415-.999 2.189-8.339 2.048-11.26 4.338-.704.55-1.226 2.085-2.478 2.062-1.005-.017-2.118-.982-2.693-1.707-1.306-1.642-2.367-3.615-4.01-4.732-.226-.154-.211-.16-.404-.064Z" fill="#45566A"/><path d="M38.71 78.445h-.04c-1.216-.021-2.468-1.06-3.17-1.942a35.46 35.46 0 0 1-1.103-1.493c-.847-1.192-1.65-2.32-2.689-3.054-.81.498-1.2 1.599-1.58 2.664-.102.284-.206.577-.316.853l-.05.125c-.286.729-.82 2.087-2.122 2.093H27.6c-.957 0-1.23-.164-1.753-.625-.153-.135-.344-.303-.63-.513-2.237-1.64-4.652-1.346-6.986-1.059-2.15.262-4.178.51-5.787-.828-.708-.59-.905-1.55-1.08-2.399-.07-.338-.135-.658-.224-.907-.148-.41-.332-.804-.51-1.186-.497-1.06-1.01-2.155-.775-3.627.151-.958.627-1.281 1.007-1.539.334-.228.652-.442.915-1.34.51-1.725.403-5.128.254-7.9-.085-1.566.286-2.66 1.1-3.252 1.271-.922 3.217-.35 4.772.25 5.884 2.271 19.498 2.213 25.55-.11 1.604-.615 3.8-1.46 5-.41.705.617.864 1.688.486 3.275-.737 3.092-.878 5.118.478 6.974.47.64.858.725 1.31.823.492.106 1.103.239 1.537 1.034.509.932.567 1.923.617 2.797.035.598.066 1.163.232 1.657.328.98.185 2.186-.127 2.872-.65 1.426-2.973 1.95-5.662 2.554-2.108.473-4.498 1.01-5.779 2.016-.162.126-.346.378-.544.643-.486.659-1.148 1.554-2.29 1.554Zm-6.965-7.812c.173 0 .337.069.542.208l.042.029c1.264.857 2.188 2.16 3.086 3.42.342.484.697.982 1.063 1.44.573.723 1.52 1.46 2.217 1.473.492.006.835-.41 1.306-1.047.248-.334.482-.652.777-.882 1.503-1.177 3.929-1.724 6.275-2.25 2.066-.466 4.408-.991 4.803-1.855.203-.447.293-1.323.079-1.958-.218-.652-.258-1.327-.295-1.981-.048-.816-.092-1.587-.467-2.274-.154-.282-.283-.322-.706-.413-.55-.118-1.304-.283-2.054-1.304-1.634-2.234-1.489-4.624-.683-7.998.25-1.05.216-1.778-.093-2.05-.634-.554-2.65.218-3.734.635-6.39 2.453-20.229 2.51-26.445.11-.67-.26-2.708-1.046-3.59-.402-.451.326-.649 1.059-.588 2.176.164 3.05.255 6.422-.303 8.318-.39 1.325-.98 1.725-1.41 2.018-.3.204-.412.278-.478.704-.174 1.092.218 1.931.673 2.903.19.407.388.828.554 1.292.12.332.197.71.272 1.077.14.68.285 1.381.658 1.693 1.197.994 2.885.786 4.84.548 2.457-.301 5.24-.64 7.875 1.291.33.243.554.44.716.584.347.305.357.315.965.313.457-.002.78-.816.97-1.304l.052-.133c.102-.253.197-.52.297-.805.46-1.296.982-2.766 2.34-3.44a.891.891 0 0 1 .445-.136Z" fill="#394457"/><path d="M39.88 30.027c.13-1.887-1.154-3.514-2.87-3.634-1.716-.119-3.213 1.315-3.345 3.203-.13 1.887 1.154 3.514 2.87 3.633 1.716.12 3.214-1.314 3.345-3.202Z" fill="#fff"/><path d="M36.737 33.758a3.06 3.06 0 0 1-.239-.009c-.978-.068-1.864-.548-2.5-1.35a4.097 4.097 0 0 1-.853-2.838c.151-2.17 1.9-3.822 3.9-3.683.977.068 1.864.548 2.497 1.35.623.786.926 1.796.854 2.838a4.1 4.1 0 0 1-1.238 2.693c-.675.648-1.528.999-2.42.999Zm.077-6.85c-1.36 0-2.52 1.187-2.629 2.726-.054.783.17 1.537.631 2.122.451.571 1.074.91 1.757.957.685.05 1.348-.203 1.871-.706a3.077 3.077 0 0 0 .92-2.014 3.069 3.069 0 0 0-.631-2.122c-.451-.57-1.074-.91-1.757-.957a2.168 2.168 0 0 0-.162-.006Z" fill="#534741"/><path d="M29.746 29.116c.13-1.887-1.154-3.514-2.87-3.634-1.716-.119-3.213 1.315-3.345 3.203-.13 1.887 1.154 3.514 2.87 3.633 1.716.12 3.214-1.314 3.345-3.202Z" fill="#fff"/><path d="M26.6 32.844c-.079 0-.155-.002-.234-.008-.978-.069-1.865-.548-2.5-1.35a4.097 4.097 0 0 1-.854-2.838c.152-2.17 1.9-3.823 3.898-3.684.978.069 1.864.548 2.5 1.35.623.787.926 1.796.853 2.838-.145 2.085-1.765 3.692-3.663 3.692Zm.077-6.85c-1.36 0-2.52 1.188-2.629 2.727-.053.782.17 1.536.632 2.122.45.57 1.073.91 1.756.957 1.433.1 2.681-1.121 2.791-2.72a3.068 3.068 0 0 0-.631-2.122c-.45-.571-1.074-.91-1.757-.958a2.088 2.088 0 0 0-.162-.006ZM38.773 30.992c.099-1.43-.934-2.666-2.306-2.762-1.373-.095-2.567.987-2.666 2.417-.1 1.43.933 2.667 2.306 2.762 1.373.095 2.566-.987 2.666-2.417Z" fill="#534741"/><path d="M28.94 30.028c.1-1.43-.907-2.665-2.248-2.758-1.34-.093-2.508.99-2.607 2.42-.1 1.43.907 2.666 2.247 2.759 1.341.093 2.509-.99 2.608-2.42Z" fill="#534741"/><path d="M37.76 29.512c.021-.316-.285-.596-.686-.624-.4-.027-.743.207-.765.524-.022.317.285.596.686.624.4.028.742-.207.764-.524Z" fill="#fff"/><path d="M36.144 21.571c-.424-.093-.69-.106-.829.044-.226.243-.07.866.274 1.233.388.414.727.198 1.9.524.656.182.83.328 2.118.718.652.197.806.222.841.164.114-.197-1.242-1.169-1.528-1.375-.571-.406-1.514-1.027-2.776-1.308Z" fill="#534741"/><path d="M43.63 35.96c.087-1.258-1.326-2.381-3.156-2.508-1.83-.127-3.385.79-3.473 2.048-.087 1.259 1.326 2.382 3.156 2.509 1.83.127 3.386-.79 3.473-2.048ZM25.3 34.688c.087-1.259-1.326-2.382-3.157-2.51-1.83-.127-3.385.79-3.472 2.05-.088 1.258 1.325 2.38 3.156 2.508 1.83.127 3.385-.79 3.472-2.048Z" fill="#E4A92D"/><path d="M27.675 28.448c.022-.317-.284-.596-.685-.624-.4-.028-.743.207-.765.523-.022.317.285.597.686.625.4.027.742-.207.764-.524ZM46.45 57.215l-1.006-1.74h-2.008l-1.005 1.74 1.005 1.74h2.008l1.005-1.74Z" fill="#fff"/><path d="M45.444 59.475h-2.01a.524.524 0 0 1-.45-.26l-1.006-1.74a.516.516 0 0 1 0-.519l1.005-1.74a.521.521 0 0 1 .451-.26h2.01c.185 0 .357.1.45.26l1.006 1.74c.093.16.093.36 0 .52l-1.005 1.74a.521.521 0 0 1-.45.259Zm-1.709-1.038h1.41l.704-1.221-.704-1.221h-1.41l-.704 1.22.704 1.222Z" fill="#CCC"/><path d="m19.85 57.215-1.005-1.74h-2.008l-1.005 1.74 1.005 1.74h2.008l1.005-1.74Z" fill="#fff"/><path d="M18.845 59.475h-2.01a.524.524 0 0 1-.45-.26l-1.006-1.74a.515.515 0 0 1 0-.519l1.005-1.74a.521.521 0 0 1 .45-.26h2.01c.185 0 .358.1.451.26l1.005 1.74c.094.16.094.36 0 .52l-1.005 1.74a.521.521 0 0 1-.45.259Zm-1.71-1.038h1.41l.705-1.221-.704-1.221h-1.41l-.704 1.22.704 1.222Z" fill="#CCC"/><path d="M30.383 65.362h-2.274a.313.313 0 0 1-.27-.156l-1.136-1.969a.31.31 0 0 1 0-.311l1.136-1.969a.313.313 0 0 1 .27-.155h2.274c.112 0 .214.06.27.155l1.136 1.969a.31.31 0 0 1 0 .311l-1.136 1.969a.313.313 0 0 1-.27.156Zm-2.093-.623h1.912l.957-1.658-.957-1.657H28.29l-.957 1.657.957 1.657Z" fill="#4CB4FA"/><path d="M33.793 63.405h-2.274a.313.313 0 0 1-.27-.155l-1.136-1.969a.31.31 0 0 1 0-.311L31.25 59a.313.313 0 0 1 .27-.155h2.274c.112 0 .213.06.27.155l1.135 1.969a.31.31 0 0 1 0 .311l-1.136 1.969a.316.316 0 0 1-.27.155Zm-2.096-.623h1.913l.957-1.656-.957-1.657h-1.913l-.957 1.657.957 1.657Z" fill="#FFC000"/><path d="M33.793 67.33h-2.274a.313.313 0 0 1-.27-.156l-1.136-1.969a.31.31 0 0 1 0-.31l1.136-1.97a.313.313 0 0 1 .27-.155h2.274c.112 0 .213.06.27.156l1.135 1.968a.31.31 0 0 1 0 .311l-1.136 1.969a.316.316 0 0 1-.27.156Zm-2.096-.623h1.913l.957-1.657-.957-1.657h-1.913l-.957 1.657.957 1.657Z" fill="#fff"/><path d="M28.743 21.056c.432-.033.698-.01.817.158.19.272-.05.868-.443 1.183-.442.358-.747.096-1.954.256-.675.09-.868.21-2.197.42-.672.105-.828.107-.855.045-.087-.21 1.391-.986 1.705-1.15.618-.324 1.638-.808 2.927-.912Z" fill="#534741"/><path d="M48.44 47.38c.848 5.21 2.069 12.01-1.833 14.358-1.258-.585-5.312-1.742-8.021-3.397-3.738-2.284-6.23-5.191-5.175-6.827 1.165-1.809 4.08-1.799 8.318-2.386 2.274-.316 4.73-1.246 6.712-1.748Z" fill="#FEBD33"/><path d="M46.61 62.36a.625.625 0 0 1-.265-.057c-.36-.168-1.017-.405-1.777-.677-1.846-.665-4.373-1.572-6.304-2.753-3.13-1.913-5.237-4.11-5.642-5.879-.155-.677-.062-1.306.268-1.819 1.117-1.734 3.432-2.012 6.636-2.396.675-.081 1.373-.164 2.12-.268 1.458-.201 2.993-.667 4.477-1.113.764-.23 1.485-.449 2.166-.62a.62.62 0 0 1 .768.504l.067.407c.878 5.382 1.968 12.078-2.193 14.585a.663.663 0 0 1-.322.087Zm1.328-14.2c-.463.13-.949.276-1.456.43-1.457.44-3.11.94-4.665 1.154-.758.106-1.462.19-2.143.272-2.974.358-4.938.594-5.737 1.834-.15.23-.183.515-.102.866.322 1.406 2.315 3.405 5.077 5.093 1.823 1.113 4.281 1.998 6.075 2.644.632.226 1.161.417 1.56.581 3.069-2.186 2.176-8.046 1.391-12.874Z" fill="#E4A92D"/><path d="M53.172 45.407c4.438 2.211 2.465 14.319-.685 17.08-.654.576-2.639 1.674-4.846 1.01-.891-.268-2.08-.858-2.446-1.441-.665-1.06.394-3.304 1.163-7.15.805-4.03-2.918-6.372-1.242-8.511.62-.791 3.634-1.16 5.453-.233" fill="#fff"/><path d="M49.061 64.33c-.51 0-1.048-.07-1.599-.235-.789-.24-2.265-.866-2.795-1.707-.585-.932-.234-2.274.295-4.302.25-.954.532-2.033.785-3.3.364-1.817-.31-3.285-.9-4.58-.636-1.388-1.293-2.823-.221-4.193.9-1.146 4.331-1.368 6.225-.403a.623.623 0 1 1-.567 1.111c-1.663-.847-4.317-.4-4.68.062-.577.737-.27 1.504.372 2.905.637 1.396 1.432 3.132.99 5.345-.26 1.304-.548 2.402-.801 3.37-.416 1.59-.746 2.849-.447 3.325.229.363 1.19.9 2.1 1.177 1.985.598 3.745-.432 4.256-.88 2-1.755 3.484-7.791 2.945-11.965-.191-1.478-.717-3.389-2.127-4.093a.623.623 0 0 1 .554-1.115c1.506.752 2.476 2.496 2.806 5.048.604 4.668-1.028 11.016-3.36 13.061-.625.548-2.076 1.368-3.83 1.368Z" fill="#CCC"/><path d="m26.461 61.522 2.93-.396a2.91 2.91 0 0 0 2.492-3.27l-1.441-10.653a2.91 2.91 0 0 0-3.27-2.492l-2.93.397a2.91 2.91 0 0 0-2.492 3.27l1.441 10.653a2.905 2.905 0 0 0 3.27 2.491Z" fill="#4D4D4D"/><path d="M26.064 62.172c-.768 0-1.51-.249-2.132-.722a3.501 3.501 0 0 1-1.358-2.336L21.133 48.46a3.506 3.506 0 0 1 .69-2.612 3.502 3.502 0 0 1 2.335-1.358l2.93-.396a3.506 3.506 0 0 1 2.612.69 3.502 3.502 0 0 1 1.358 2.335L32.5 57.772a3.532 3.532 0 0 1-3.025 3.97l-2.93.397c-.16.023-.322.033-.48.033Zm1.502-16.865c-.104 0-.208.006-.312.021l-2.93.397a2.273 2.273 0 0 0-1.512.878 2.274 2.274 0 0 0-.446 1.69l1.441 10.652c.081.605.395 1.142.88 1.512.486.37 1.087.527 1.69.447l2.93-.397a2.267 2.267 0 0 0 1.512-.88c.37-.486.528-1.087.447-1.69l-1.441-10.653a2.273 2.273 0 0 0-2.26-1.977Z" fill="#333"/><path d="M15.33 48.476c-1.512 5.058-.694 10.604 2.871 13.436 3.1-.982 9.51-4.269 9.473-5.755-.069-2.839-6.902-5.522-12.345-7.681Z" fill="#FEBD33"/><path d="M18.2 62.535a.621.621 0 0 1-.388-.135c-3.528-2.8-4.765-8.47-3.081-14.103a.623.623 0 0 1 .829-.4l.172.068c5.853 2.323 12.485 4.956 12.564 8.175.009.382.036 1.4-3.874 3.625-1.967 1.12-4.39 2.22-6.032 2.741a.662.662 0 0 1-.19.03ZM15.745 49.31c-1.227 4.784-.216 9.454 2.59 11.902 1.511-.517 3.613-1.48 5.355-2.464 2.674-1.508 3.334-2.38 3.363-2.587-.058-2.308-6.652-5-11.308-6.85Z" fill="#E4A92D"/><path d="M8.668 45.741c-4.757 1.387-1.925 13.755.675 16.9.542.654 1.627 1.099 3.916.823.924-.11 4.277-.339 4.742-.837.843-.901-.78-3.58-.847-7.37-.068-3.972 1.967-3.691.704-6.002-.467-.856-4.811-2.957-6.765-2.37" fill="#fff"/><path d="M11.996 64.17c-1.476 0-2.506-.374-3.133-1.132-2.083-2.519-4.334-10.57-2.974-14.994.474-1.539 1.373-2.542 2.604-2.9a.622.622 0 1 1 .35 1.195c-.821.239-1.415.937-1.762 2.07-1.192 3.88.87 11.57 2.743 13.836.503.606 1.632.81 3.36.602.168-.02.415-.044.71-.073.797-.077 3.206-.311 3.665-.587.185-.26-.068-1.292-.295-2.203-.313-1.267-.702-2.845-.735-4.714-.035-2.045.455-3.063.814-3.808.345-.715.474-.98-.035-1.908-.413-.665-4.377-2.571-6.038-2.073a.623.623 0 1 1-.36-1.194c2.243-.675 6.873 1.537 7.492 2.666.814 1.49.45 2.247.064 3.047-.321.666-.72 1.497-.69 3.245.028 1.73.4 3.231.697 4.435.38 1.539.654 2.652-.021 3.37-.415.445-1.454.67-4.44.96-.284.027-.52.05-.683.07-.477.06-.922.09-1.333.09Z" fill="#CCC"/><path d="M9.168 46.107c.796 0 .798-1.236 0-1.236-.795-.002-.797 1.236 0 1.236Z" fill="#CCC"/><path d="M31.206 43.21c-.214 0-.43-.008-.65-.023-1.616-.112-3.113-.644-4.217-1.495-1.178-.91-1.78-2.076-1.697-3.287a.626.626 0 0 1 .665-.58.626.626 0 0 1 .579.665c-.054.78.376 1.568 1.215 2.214.911.704 2.17 1.142 3.542 1.237 2.691.185 5.07-1.077 5.187-2.761.025-.343.32-.6.664-.58a.626.626 0 0 1 .58.665c-.16 2.29-2.683 3.945-5.868 3.945Z" fill="#534741"/></g><defs><clipPath id="b"><path fill="#fff" transform="translate(-11 6)" d="M0 0h84.096v78.697H0z"/></clipPath></defs></svg>