<svg width="358" height="412" viewBox="0 0 358 412" fill="none" xmlns="http://www.w3.org/2000/svg"><ellipse cx="181" cy="368" rx="150" ry="25" fill="#000" fill-opacity=".1"/><path d="M289.93 211.74c-6.97-6.79-13.67-12.36-18.87-15.59-17.52-10.87-17.65-3.52-17.44-20.64.15-12.11-.99-23.99-3.85-36.11-12.32-52.18-43.63-97.25-63.71-98.33-18.61-.56-54.13 48.43-66.29 100.33-2.54 10.82-4 21-4.55 32.48-.81 17.1-.16 9.77-17.94 20.2-20.57 12.08-64.76 59.3-58.54 76.6 3.3 9.18 44.97 5.61 53.85 4.55 12.08-1.45 5.1 24.16 1.72 50.95-2.55 20.23.45 36.23 11.03 42.73 7.83 4.81 45.78-.08 77.39-56.7 30.21 57.38 65.86 62.68 73.98 58.37 12.55-6.67 16.55-25.67 16.09-43.35-.69-26.44-11.09-51.74.95-49.99 2.35.34-1 .92 4.62 1.41-.74-22.3 8.8-44.61 11.56-66.91Z" fill="#FEBD33"/><path d="M250.66 374.74c-3.34 0-7.21-.63-11.27-1.88-12.05-3.71-35.04-15.72-56.72-54.51-23.93 40.28-49.91 50.84-60.23 53.53-7.9 2.06-14.88 1.9-18.66-.42-11.04-6.79-15.34-22.58-12.43-45.66.69-5.47 1.52-10.83 2.32-16.01 2.03-13.11 4.33-27.97 1.26-31.14-.18-.18-.59-.61-1.97-.44-5.02.6-17.61 1.71-29.41 1.59-17.16-.18-25.67-2.67-27.62-8.1-4.02-11.19 8.51-29.66 19.74-43.19 12.83-15.46 29.32-30.68 40.11-37.01 5.44-3.19 9.28-4.81 11.82-5.88 2.69-1.13 3.4-1.48 3.68-2.08.55-1.16.69-4.09.92-8.93l.04-.88c.54-11.38 2.01-21.87 4.62-33.02 11.77-50.23 47.02-102.65 68.89-102.65.14 0 .27 0 .41.01 22.71 1.22 54.39 49.18 66.54 100.64 2.8 11.88 4.09 23.93 3.93 36.84-.06 5.04-.1 8.36.42 9.64.25.63.97 1 3.67 2.18 2.58 1.13 6.48 2.84 11.93 6.22 5.26 3.27 12.14 8.94 19.38 15.99.67.65 1 1.59.88 2.52-1.12 9.03-3.34 18.12-5.49 26.91-3.18 13.02-6.48 26.49-6.03 39.53.03.86-.31 1.69-.93 2.28-.62.59-1.47.89-2.33.81-2.08-.18-4.07-.36-5.27-1.48-.4-.02-.84.01-1.04.21-1.84 1.87-.32 11.49 1.02 19.99 1.28 8.1 2.73 17.28 2.98 26.79.28 10.88-.88 37.14-17.68 46.08-1.91 1.02-4.48 1.52-7.48 1.52Zm-67.92-65.53h.04c1.1.01 2.1.63 2.62 1.6 21.41 40.66 44.12 52.74 55.76 56.32 7.85 2.42 12.7 1.58 14.16.8 9.61-5.11 15.03-20.29 14.5-40.62-.24-9.13-1.65-18.1-2.91-26.01-2.01-12.72-3.34-21.12.64-25.14 1.12-1.14 3.19-2.39 6.65-1.88.25.04.68.1 1.16.26.24-12.45 3.28-24.88 6.23-36.94 1.99-8.14 4.04-16.53 5.17-24.75-6.53-6.26-12.63-11.26-17.28-14.15-5.09-3.16-8.61-4.7-11.18-5.83-7.85-3.44-7.83-5.3-7.68-17.4.15-12.41-1.08-23.99-3.77-35.38-12.28-52.04-43.39-95.08-60.95-96.02h-.24c-15.5 0-50.43 44.48-62.97 98.02-2.53 10.78-3.95 20.93-4.47 31.93l-.04.87c-.53 11.31-.62 13.05-8.26 16.26-2.54 1.07-6.01 2.53-11.11 5.52-22.21 13.04-62.38 58.69-57.24 73 .06.16 1.64 3.92 22.04 4.13 11.49.12 23.75-.96 28.63-1.55 3.59-.44 5.79.98 7 2.23 5.14 5.31 3.13 18.28.35 36.22-.8 5.14-1.62 10.46-2.3 15.85-2.56 20.28.86 34.41 9.62 39.8 1.33.82 5.98 1.82 14-.28 9.96-2.6 35.68-13.19 59.2-55.33.54-.95 1.55-1.53 2.63-1.53Z" fill="#E4A92D"/><path d="M159.78 144.4c8.284 0 15-7.387 15-16.5s-6.716-16.5-15-16.5c-8.284 0-15 7.387-15 16.5s6.716 16.5 15 16.5Z" fill="#fff"/><path d="M159.78 146.91c-9.65 0-17.5-8.52-17.5-19s7.85-19 17.5-19 17.5 8.52 17.5 19-7.85 19-17.5 19Zm0-33c-6.89 0-12.5 6.28-12.5 14s5.61 14 12.5 14 12.5-6.28 12.5-14-5.61-14-12.5-14Z" fill="#534741"/><path d="M208.78 143.4c8.284 0 15-7.387 15-16.5s-6.716-16.5-15-16.5c-8.284 0-15 7.387-15 16.5s6.716 16.5 15 16.5Z" fill="#fff"/><path d="M208.78 145.91c-9.65 0-17.5-8.52-17.5-19s7.85-19 17.5-19 17.5 8.52 17.5 19-7.85 19-17.5 19Zm0-33c-6.89 0-12.5 6.28-12.5 14s5.61 14 12.5 14 12.5-6.28 12.5-14-5.61-14-12.5-14ZM161.78 145.4c6.627 0 12-5.596 12-12.5s-5.373-12.5-12-12.5-12 5.596-12 12.5 5.373 12.5 12 12.5Z" fill="#534741"/><path d="M209.05 144.06c6.473 0 11.72-5.596 11.72-12.5s-5.247-12.5-11.72-12.5c-6.473 0-11.72 5.596-11.72 12.5s5.247 12.5 11.72 12.5ZM165.55 88.52c2.06-.31 3.35-.28 3.97.49 1.01 1.25.05 4.18-1.73 5.83-2 1.86-3.56.7-9.3 1.88-3.21.66-4.1 1.3-10.41 2.75-3.2.73-3.95.79-4.09.5-.49-.98 6.36-5.2 7.8-6.09 2.87-1.76 7.61-4.44 13.76-5.36Z" fill="#534741"/><path d="M140.78 166.15c8.837 0 16-4.925 16-11s-7.163-11-16-11-16 4.925-16 11 7.163 11 16 11ZM229.28 166.15c8.837 0 16-4.925 16-11s-7.163-11-16-11-16 4.925-16 11 7.163 11 16 11ZM117.55 329.4c-.52 0-1.01-.27-1.28-.72l-5.72-9.37c-.28-.46-.29-1.03-.04-1.5l5.26-9.64c.26-.47.75-.77 1.28-.78l10.98-.27c.55 0 1.04.26 1.32.72l5.72 9.37c.28.46.29 1.03.04 1.5l-5.26 9.64c-.26.47-.75.77-1.28.78l-10.98.27h-.04Zm-3.99-10.92 4.82 7.9 9.25-.23 4.43-8.12-4.82-7.89-9.25.23-4.43 8.11ZM115.04 357.35c-.38 0-.75-.14-1.03-.41l-7.01-6.67c-.39-.37-.55-.92-.42-1.44l2.27-9.4c.13-.52.52-.94 1.03-1.09l9.28-2.73c.51-.15 1.07-.02 1.46.35l7.01 6.67c.39.37.55.92.42 1.44l-2.28 9.41c-.13.52-.52.94-1.03 1.09l-9.28 2.73c-.14.03-.28.05-.42.05Zm-5.35-8.67 5.75 5.48 7.62-2.24 1.87-7.72-5.75-5.48-7.62 2.24-1.87 7.72ZM140.87 344.23c-.38 0-.75-.14-1.03-.41l-5.37-5.11c-.39-.37-.55-.92-.42-1.44l1.74-7.2c.13-.52.52-.94 1.03-1.09l7.11-2.09c.51-.15 1.07-.02 1.46.35l5.37 5.11c.39.37.55.92.42 1.44l-1.74 7.2c-.13.52-.52.94-1.03 1.09l-7.11 2.09c-.15.04-.29.06-.43.06Zm-3.71-7.1 4.11 3.92 5.45-1.6 1.33-5.52-4.11-3.92-5.45 1.6-1.33 5.52ZM246.22 332.77h-.04l-10.98-.27c-.54-.01-1.02-.31-1.28-.78l-5.26-9.64a1.49 1.49 0 0 1 .04-1.5l5.72-9.37c.27-.45.76-.72 1.28-.72h.04l10.98.27c.54.01 1.02.31 1.28.78l5.26 9.64c.26.47.24 1.04-.04 1.5l-5.72 9.37c-.27.45-.76.72-1.28.72Zm-10.07-3.25 9.25.23 4.82-7.9-4.43-8.12-9.25-.23-4.82 7.9 4.43 8.12ZM255.74 362.71c-.14 0-.28-.02-.42-.06l-9.28-2.73c-.51-.15-.91-.57-1.03-1.09l-2.27-9.4c-.13-.52.04-1.07.42-1.44l7.01-6.67c.39-.37.94-.51 1.46-.35l9.28 2.73c.51.15.91.56 1.03 1.09l2.28 9.4c.13.52-.04 1.07-.42 1.44l-7.01 6.67c-.3.27-.67.41-1.05.41Zm-8.03-5.42 7.62 2.24 5.75-5.48-1.87-7.72-7.62-2.24-5.75 5.48 1.87 7.72ZM231.91 357.6c-.14 0-.28-.02-.42-.06l-7.11-2.09c-.51-.15-.91-.57-1.03-1.09l-1.74-7.2c-.13-.52.04-1.07.42-1.44l5.37-5.11c.39-.37.94-.51 1.46-.35l7.11 2.09c.51.15.91.57 1.03 1.09l1.74 7.2c.13.52-.04 1.07-.42 1.44l-5.37 5.11c-.29.27-.66.41-1.04.41Zm-5.86-4.79 5.45 1.6 4.11-3.92-1.33-5.52-5.45-1.6-4.11 3.92 1.33 5.52Z" fill="#E4A92D"/><path d="M290.86 204.52c-6.9-3.82-14.17-7.68-19.27-11.37-21.3-15.4-37.92 11.95-76 18.32-7.82 1.31-16.82 1.31-23.57 0-37.89-7.34-54.7-33.73-76-18.32-12 8.68-36 18.32-39 26.04-4.66 11.98 5.87 9.04 9 27.97 2.98 18.06-3.25 32.07 2 35.68 4.4 3.03 14.3-3.73 20 0 3.61 2.36.26 17.09 3 21.22 5.74 8.63 27.48-9.36 61-8.68h63.57c33.52-.68 55.26 17.31 61 8.68 2.74-4.12-.61-18.86 3-21.22 1.95-1.27 1.07-14.14 3.62-13.77-1.14-25.79 4.18-38.76 7.65-64.55Z" fill="#fff"/><path d="M96 309.41c-3.18 0-5.69-1.02-7.47-3.7-1.79-2.7-1.74-7.25-1.69-12.07.03-2.72.08-7.22-.59-8.38-1.96-1.15-5.37-.38-8.66.38-3.98.91-8.1 1.84-11.27-.33-4.2-2.89-3.7-8.73-3.06-16.12.51-5.95 1.15-13.35-.2-21.55-1.37-8.28-4.2-11.89-6.48-14.8-2.78-3.54-5.41-6.89-2.35-14.75 2.29-5.88 12.26-11.37 23.8-17.71 5.88-3.23 11.95-6.57 16.23-9.67 14.19-10.27 27.02-3.7 41.87 3.89 10.12 5.17 21.58 11.04 36.46 13.92 6.41 1.24 15.03 1.24 22.5-.01 15.35-2.57 27.02-8.61 37.33-13.93 14.47-7.49 26.98-13.95 40.93-3.86 4.28 3.1 10.35 6.43 16.22 9.66l4.53 2.5-.27 2.03c-1.14 8.44-2.44 15.37-3.7 22.07-2.51 13.34-4.68 24.87-3.92 41.95l.16 3.62-1.77-.26c-.22 1.21-.4 3-.52 4.21-.44 4.4-.74 7.34-2.7 8.75-.68 1.13-.63 5.66-.6 8.39.05 4.82.11 9.38-1.69 12.07-4.06 6.11-11.92 3.57-22.79.07-10.13-3.27-23.98-7.72-40.65-7.41h-63.63c-16.73-.37-30.58 4.14-40.71 7.41-6.1 1.97-11.25 3.63-15.31 3.63Zm-12.39-30.73c2.11 0 4.18.42 6.05 1.65 3.3 2.16 3.24 7.36 3.17 13.38-.03 3-.08 7.53.68 8.68 1.54 2.32 8.21.17 15.95-2.32 10.53-3.4 24.95-8.07 42.62-7.69h63.51c17.58-.34 32.02 4.3 42.56 7.7 7.73 2.49 14.4 4.65 15.95 2.32.77-1.16.72-5.69.68-8.68-.06-5.69-.12-10.64 2.65-12.99.29-.94.53-3.33.68-4.81.42-4.17.75-6.82 2.04-8.4-.58-16.85 1.59-28.37 4.09-41.64 1.14-6.08 2.32-12.34 3.37-19.73l-.92-.51c-6.03-3.32-12.27-6.75-16.85-10.06-10.96-7.93-20.39-3.05-34.66 4.33-10.16 5.26-22.81 11.8-39.09 14.52-8.13 1.36-17.57 1.35-24.63-.01-15.71-3.04-28.09-9.38-38.05-14.47-14.7-7.51-24.41-12.48-35.62-4.37-4.58 3.31-10.82 6.75-16.86 10.07-8.74 4.8-19.61 10.78-21.1 14.63-1.81 4.67-.98 5.73 1.48 8.87 2.56 3.26 6.06 7.73 7.68 17.52 1.48 8.94.8 16.76.26 23.04-.41 4.79-.84 9.75.48 10.66 1 .69 4.07-.01 6.53-.58 2.36-.53 4.89-1.11 7.35-1.11Z" fill="#CCC"/><path d="M183.83 327.46c3.63 1.68 6.57 4.31 18 21.13 5.05 7.43 6.98 8.53 11 8.64 5.02.14 5.69-1.06 10-5.76 17.89-19.52 54.05-6.07 58-18.25 1.03-3.18.25-5.34 0-12.48-.42-12.13 3.4-16.71 1-23.05-1.98-5.24-5.08-1.62-11-9.6-5.22-7.04-5.22-21.44-4-37.45 1.72-22.5 4.78-37.77 10-54.74.31-1 2.6-2.88 2-4.8-.9-2.88-15.34-8.93-19-7.68-3.85 1.31-5.4 6.32-7 15.37-4.46 25.28-2.63 37.54-10 41.3-18.22 9.29-98.22 10.25-120.22 0-7.51-3.5-5.54-16.01-10-41.3-1.6-9.05-2.15-14.06-6-15.37-3.66-1.24-19.1 4.8-20 7.68-.6 1.92 1.63 3.82 2 4.8 6 16.01 7.37 29.87 10 54.74 2 18.89 3 26.57-4 37.45-5.36 8.34-9.02 4.37-11 9.6-2.4 6.33 1.42 10.92 1 23.05-.25 7.15-1.03 9.3 0 12.48 3.95 12.18 40.11-1.27 58 18.25 4.31 4.7 4.98 5.9 10 5.76 4.02-.11 5.95-1.22 11-8.64 11.43-16.82 14.37-19.45 18-21.13.5-.23 1.72-.23 2.22 0Z" fill="#45566A"/><path d="M213.46 360.24c-.23 0-.46 0-.71-.01-5.43-.15-8.06-2.1-13.4-9.96-11.1-16.33-13.8-18.66-16.56-19.99h-.15c-2.75 1.32-5.46 3.65-16.56 19.99-5.34 7.85-7.97 9.81-13.4 9.96-6 .16-7.7-1.69-11.4-5.75l-.9-.98c-9.09-9.92-24.01-10.57-35.99-11.08-10.87-.47-20.26-.87-22.65-8.27-.88-2.71-.72-4.83-.47-8.04.11-1.43.25-3.21.33-5.48.18-5.27-.47-8.98-1.05-12.25-.72-4.06-1.34-7.57.24-11.76 1.39-3.67 3.68-4.53 5.53-5.21 1.66-.62 3.38-1.26 5.75-4.95 6.27-9.75 5.56-16.43 3.67-34.27l-.31-2.9c-2.52-23.83-3.91-36.98-9.61-52.23-.09-.14-.22-.31-.35-.49-.92-1.25-2.62-3.58-1.75-6.38.39-1.26 1.41-2.86 6.02-5.2 4.03-2.05 13.69-5.83 17.81-4.43 5.23 1.77 6.18 7.27 7.62 15.6l.36 2.09c1.46 8.24 2.24 15.2 2.87 20.78 1.3 11.55 2.02 16.72 5.44 18.31 21.78 10.15 100.83 8.59 117.6.05 3.44-1.75 4.18-6.96 5.53-18.57.64-5.53 1.44-12.4 2.88-20.57 1.56-8.82 3.21-15.72 8.99-17.68 4.97-1.69 16.15 3.96 16.26 4.01 5.07 2.58 6.17 4.36 6.56 5.62.86 2.76-.81 5.05-1.71 6.28-.13.17-.25.33-.34.47-5.46 17.78-8.21 32.91-9.82 53.91-1 13.01-1.51 28.8 3.42 35.44 2.63 3.55 4.43 4.31 6.02 4.97 1.78.75 3.99 1.68 5.38 5.36 1.59 4.19.96 7.7.24 11.76-.58 3.27-1.24 6.97-1.05 12.24.08 2.27.22 4.05.33 5.48.25 3.21.41 5.33-.47 8.04-2.4 7.4-11.78 7.8-22.65 8.27-11.98.52-26.89 1.16-35.99 11.08l-.9.99c-3.52 3.89-5.21 5.75-10.66 5.75Zm-30.74-35.96c.86 0 1.72.15 2.37.45 4.55 2.11 7.97 5.61 19.22 22.16 4.91 7.23 6.07 7.26 8.6 7.33 3.28.09 3.4-.06 6.79-3.79l.91-1c10.78-11.76 27.07-12.46 40.15-13.02 8.28-.36 16.09-.69 17.2-4.12.49-1.5.43-2.65.19-5.73-.11-1.49-.25-3.34-.34-5.73-.21-5.91.54-10.12 1.14-13.5.63-3.58 1.05-5.95.05-8.59-.48-1.27-.7-1.36-2.09-1.95-1.95-.82-4.89-2.06-8.51-6.93-6.06-8.16-5.78-23.79-4.58-39.47 1.65-21.55 4.49-37.08 10.12-55.39.25-.79.72-1.44 1.17-2.07.18-.25.48-.65.65-.96-2.48-2.29-12.67-6.25-15.04-5.71-2.34.8-3.68 5.79-4.96 13.03-1.41 7.99-2.2 14.77-2.83 20.22-1.44 12.44-2.31 19.94-8.76 23.23-10.76 5.48-38.07 7.55-60.04 7.65-28.79.14-52.29-2.71-62.81-7.61-6.61-3.08-7.46-10.61-8.87-23.08-.62-5.5-1.4-12.35-2.82-20.41l-.37-2.11c-1.17-6.78-1.87-10.34-3.64-10.94-2.39-.52-13.34 3.51-15.99 5.77.19.33.49.75.69 1.01.43.58.83 1.13 1.08 1.81 6 16.01 7.5 30.24 10 53.82l.31 2.9c1.94 18.28 2.82 26.63-4.59 38.15-3.45 5.36-6.61 6.54-8.7 7.32-1.41.53-1.59.59-2.02 1.72-1 2.64-.58 5.01.05 8.59.6 3.38 1.35 7.59 1.14 13.5-.08 2.39-.23 4.24-.34 5.73-.24 3.08-.29 4.22.2 5.73 1.11 3.43 8.93 3.77 17.2 4.12 13.09.56 29.38 1.26 40.15 13.02l.91 1c3.39 3.73 3.53 3.88 6.79 3.79 2.53-.07 3.69-.1 8.6-7.33 11.25-16.56 14.67-20.06 19.22-22.16.68-.3 1.54-.45 2.4-.45ZM85.8 196.94v.01-.01Z" fill="#394457"/><path d="M183.83 328.62c3.63 1.68 6.57 4.31 18 21.13 5.05 7.43 6.98 8.53 11 8.64 5.02.14 5.69-1.06 10-5.76 17.89-19.52 54.05-6.07 58-18.25 1.03-3.18.25-5.34 0-12.48-.42-12.13 3.4-16.71 1-23.05-1.98-5.24-5.08-1.62-11-9.6-5.22-7.04-5.22-21.44-4-37.45 1.72-22.5-16.63-14.32-24-10.56-18.22 9.29-98.22 10.25-120.22 0-7.51-3.5-26.63-14.3-24 10.56 2 18.89 3 26.57-4 37.45-5.36 8.34-9.02 4.37-11 9.6-2.4 6.33 1.42 10.92 1 23.05-.25 7.15-1.03 9.3 0 12.48 3.95 12.18 40.11-1.27 58 18.25 4.31 4.7 4.98 5.9 10 5.76 4.02-.11 5.95-1.22 11-8.64 11.43-16.82 14.37-19.45 18-21.13.5-.23 1.72-.23 2.22 0Z" fill="#45566A"/><path d="M213.46 361.4c-.23 0-.47 0-.71-.01-5.43-.15-8.06-2.1-13.4-9.96-11.1-16.33-13.8-18.67-16.56-19.99h-.15c-2.75 1.32-5.46 3.66-16.56 19.99-5.34 7.85-7.97 9.81-13.4 9.96-6.01.17-7.7-1.69-11.4-5.75l-.9-.98c-9.09-9.92-24.01-10.57-35.99-11.08-10.87-.47-20.26-.87-22.65-8.27-.88-2.71-.72-4.83-.47-8.04.11-1.43.25-3.21.33-5.48.18-5.27-.47-8.98-1.05-12.25-.72-4.06-1.34-7.57.24-11.76 1.39-3.67 3.68-4.53 5.53-5.21 1.66-.62 3.38-1.26 5.75-4.95 6.27-9.75 5.56-16.43 3.67-34.27l-.13-1.24c-.93-8.81.6-14.49 4.68-17.37 6.37-4.49 16.17.22 22.02 3.03.56.27 1.07.52 1.54.73 21.78 10.15 100.83 8.59 117.6.05 10.47-5.34 17.98-6.32 22.97-3 4.19 2.79 6 8.33 5.38 16.46-1 13.01-1.51 28.8 3.42 35.44 2.63 3.55 4.43 4.31 6.02 4.97 1.78.75 3.99 1.68 5.38 5.36 1.59 4.19.96 7.7.24 11.76-.58 3.27-1.24 6.97-1.05 12.24.08 2.27.22 4.05.33 5.48.25 3.21.41 5.33-.47 8.04-2.4 7.4-11.78 7.8-22.65 8.27-11.98.51-26.89 1.16-35.99 11.08l-.9.99c-3.53 3.9-5.22 5.76-10.67 5.76ZM106.75 238.86c-1.17 0-2.19.23-2.98.79-2.06 1.45-2.83 5.65-2.17 11.83l.13 1.24c1.94 18.28 2.82 26.63-4.59 38.15-3.45 5.36-6.61 6.54-8.7 7.32-1.41.53-1.59.6-2.02 1.72-1 2.64-.58 5.01.05 8.59.6 3.38 1.35 7.59 1.14 13.5-.08 2.39-.23 4.24-.34 5.73-.24 3.08-.29 4.22.2 5.73 1.11 3.43 8.93 3.77 17.2 4.12 13.09.56 29.38 1.26 40.15 13.02l.91 1c3.39 3.73 3.52 3.88 6.79 3.79 2.53-.07 3.69-.1 8.6-7.33 11.25-16.56 14.67-20.06 19.22-22.16 1.31-.61 3.44-.61 4.75 0 4.55 2.11 7.97 5.61 19.22 22.16 4.91 7.23 6.07 7.26 8.6 7.33 3.27.09 3.4-.06 6.79-3.79l.91-1c10.78-11.76 27.07-12.46 40.15-13.02 8.28-.36 16.09-.69 17.2-4.12.49-1.5.43-2.65.19-5.73-.11-1.49-.25-3.34-.34-5.73-.21-5.91.54-10.12 1.14-13.5.63-3.58 1.05-5.95.05-8.59-.48-1.27-.7-1.36-2.09-1.95-1.95-.82-4.89-2.06-8.51-6.93-6.06-8.16-5.78-23.79-4.58-39.47.3-3.99.08-9.14-2.73-11.01-2.04-1.36-6.64-1.89-16.92 3.35-10.76 5.48-38.07 7.55-60.04 7.65-28.77.13-52.29-2.71-62.81-7.61-.49-.23-1.03-.49-1.61-.77-3.35-1.61-8.98-4.31-12.96-4.31Zm75.82 92.49s.01 0 0 0c.01 0 0 0 0 0Z" fill="#394457"/><path d="m109.35 259.65 4.84-8.38h9.67l4.84 8.38-4.84 8.38h-9.67l-4.84-8.38Z" fill="#fff"/><path d="M123.86 270.53h-9.68c-.89 0-1.72-.48-2.17-1.25l-4.84-8.38c-.45-.77-.45-1.73 0-2.5l4.84-8.38c.45-.77 1.27-1.25 2.17-1.25h9.68c.89 0 1.72.48 2.17 1.25l4.84 8.38c.45.77.45 1.73 0 2.5l-4.84 8.38c-.45.77-1.28 1.25-2.17 1.25Zm-8.23-5h6.79l3.39-5.88-3.39-5.88h-6.79l-3.39 5.88 3.39 5.88Z" fill="#CCC"/><path d="m237.45 259.65 4.84-8.38h9.67l4.84 8.38-4.84 8.38h-9.67l-4.84-8.38Z" fill="#fff"/><path d="M251.96 270.53h-9.67c-.89 0-1.72-.48-2.17-1.25l-4.84-8.38c-.45-.77-.45-1.73 0-2.5l4.84-8.38c.45-.77 1.27-1.25 2.17-1.25h9.67c.89 0 1.72.48 2.17 1.25l4.84 8.38c.45.77.45 1.73 0 2.5l-4.84 8.38c-.45.77-1.27 1.25-2.17 1.25Zm-8.23-5h6.79l3.39-5.88-3.39-5.88h-6.79l-3.39 5.88 3.39 5.88Z" fill="#CCC"/><path d="M181.25 298.89H170.3c-.54 0-1.03-.29-1.3-.75l-5.47-9.48a1.49 1.49 0 0 1 0-1.5l5.47-9.48c.27-.46.76-.75 1.3-.75h10.95c.54 0 1.03.29 1.3.75l5.47 9.48c.27.46.27 1.04 0 1.5l-5.47 9.48c-.27.46-.76.75-1.3.75Zm-10.08-3h9.21l4.61-7.98-4.61-7.98h-9.21l-4.61 7.98 4.61 7.98Z" fill="#4CB4FA"/><path d="M197.67 289.46h-10.95c-.54 0-1.03-.29-1.3-.75l-5.47-9.48a1.49 1.49 0 0 1 0-1.5l5.47-9.48c.27-.46.76-.75 1.3-.75h10.95c.54 0 1.03.29 1.3.75l5.47 9.48c.27.46.27 1.04 0 1.5l-5.47 9.48c-.27.47-.77.75-1.3.75Zm-10.09-3h9.22l4.61-7.98-4.61-7.98h-9.22l-4.61 7.98 4.61 7.98Z" fill="#FFC000"/><path d="M197.67 308.36h-10.95c-.54 0-1.03-.29-1.3-.75l-5.47-9.48a1.49 1.49 0 0 1 0-1.5l5.47-9.48c.27-.46.76-.75 1.3-.75h10.95c.54 0 1.03.29 1.3.75l5.47 9.48c.27.46.27 1.04 0 1.5l-5.47 9.48c-.27.47-.77.75-1.3.75Zm-10.09-3h9.22l4.61-7.98-4.61-7.98h-9.22l-4.61 7.98 4.61 7.98ZM82.87 331.41c11.12-3.19 29.26-3.64 44.53 1.46 18.92 6.31 34.09 19.19 33.82 23-.21 3.04-7.54 5.01-10.97 3.79-2.59-.92-5.23-4.12-7.46-5.7-9.72-6.87-17.41-10.05-24.18-11.28-27.55-5-32.78 3.23-36.41-1.76-2.52-3.48-3.64-8.27.67-9.51Z" fill="#fff"/><path d="M152.8 363.01c-1.3 0-2.53-.17-3.55-.54-2.23-.79-4.2-2.58-5.94-4.16-.82-.75-1.6-1.45-2.25-1.91-8.57-6.06-15.88-9.49-22.98-10.78-15.11-2.75-23.24-1.38-28.09-.56-4.05.68-7.55 1.27-10.21-2.39-2.49-3.41-3.39-7.12-2.43-9.92.71-2.07 2.38-3.57 4.69-4.23 11.19-3.21 29.85-3.99 46.31 1.5 17.9 5.97 36.33 19.36 35.87 26.05-.09 1.25-.69 3.07-3.07 4.63-2.25 1.48-5.48 2.31-8.35 2.31Zm-51.15-25.02c4.6 0 10.33.43 17.51 1.74 8 1.45 16.06 5.2 25.37 11.78.95.67 1.9 1.54 2.82 2.37 1.32 1.2 2.81 2.56 3.91 2.95 1.85.65 5.63-.33 6.81-1.26-1.79-3.25-14.23-14.06-31.61-19.85-15.15-5.06-32.79-4.28-42.75-1.42-.59.17-.65.35-.67.42-.22.63.14 2.42 1.61 4.44.38.52.47.66 4.36 0 2.9-.5 6.9-1.17 12.64-1.17Z" fill="#CCC"/><path d="M282.03 331.41c-11.12-3.19-29.26-3.64-44.53 1.46-18.92 6.31-34.09 19.19-33.82 23 .21 3.04 7.54 5.01 10.97 3.79 2.59-.92 5.23-4.12 7.46-5.7 9.72-6.87 17.41-10.05 24.18-11.28 27.55-5 32.78 3.23 36.41-1.76 2.52-3.48 3.65-8.27-.67-9.51Z" fill="#fff"/><path d="M212.1 363.01c-2.87 0-6.1-.84-8.35-2.32-2.38-1.56-2.98-3.38-3.07-4.63-.47-6.69 17.97-20.08 35.87-26.05 16.45-5.49 35.11-4.71 46.31-1.5 2.32.66 3.98 2.17 4.69 4.23.96 2.8.05 6.51-2.43 9.92-2.66 3.66-6.16 3.07-10.21 2.39-4.85-.82-12.97-2.18-28.09.56-7.11 1.29-14.41 4.71-22.98 10.78-.65.46-1.42 1.16-2.25 1.91-1.74 1.58-3.71 3.37-5.94 4.16-1.02.38-2.25.55-3.55.55Zm-5.26-7.45c1.18.93 4.96 1.92 6.81 1.26 1.1-.39 2.59-1.75 3.91-2.95.92-.84 1.87-1.7 2.82-2.37 9.31-6.59 17.38-10.33 25.37-11.78 16.15-2.93 24.92-1.46 30.16-.57 3.89.65 3.99.51 4.36 0 1.47-2.02 1.83-3.81 1.61-4.44-.02-.07-.08-.25-.67-.42-9.97-2.86-27.6-3.64-42.75 1.42-17.39 5.8-29.83 16.6-31.62 19.85Z" fill="#CCC"/><path d="M201.29 88.52c-2.06-.31-3.35-.28-3.97.49-1.01 1.25-.05 4.18 1.73 5.83 2 1.86 3.56.7 9.3 1.88 3.21.66 4.1 1.3 10.41 2.75 3.2.73 3.95.79 4.09.5.49-.98-6.36-5.2-7.8-6.09-2.87-1.76-7.61-4.44-13.76-5.36Z" fill="#534741"/><path d="M285.27 204.97c1.92 0 1.92-2.98 0-2.98s-1.92 2.98 0 2.98Z" fill="#CCC"/><path d="M260.06 207.42c-2.06 25.34-15.43 48.8-36.39 55.27-12.19-9.83-35.2-35.79-32.44-42.4 5.28-12.62 40.63-12.7 68.83-12.87Z" fill="#FEBD33"/><path d="M223.67 265.68c-.68 0-1.34-.23-1.88-.66-6.46-5.21-15.41-14.39-22.28-22.85-13.65-16.83-11.76-21.34-11.05-23.04 5.99-14.31 40.36-14.52 70.68-14.7l.89-.01h.02c.83 0 1.63.35 2.2.96.57.62.86 1.45.79 2.28-2.3 28.22-17.77 51.49-38.49 57.89-.28.09-.58.13-.88.13Zm33.07-55.24c-24.13.16-58.43.71-62.74 11-.22.94 1.22 6.01 10.58 17.45 6.1 7.46 13.84 15.46 19.72 20.42 16.88-6.07 29.58-25.26 32.44-48.87Z" fill="#E4A92D"/><path d="M292.31 205.78c18.92 14.54-1.55 66.96-18.72 76.52-3.57 1.99-23.1.21-32.88-5.03-3.95-2.11-18.6-9-19.81-12.05-2.21-5.51 9.76-14.7 16.69-31.59 7.26-17.71-2.37-20.01 7.35-28.17 3.6-3.02 26.76-4.85 34.5 1.2" fill="#fff"/><path d="M267.58 286.07c-8.43 0-21.1-2.3-28.3-6.16-.69-.37-1.71-.89-2.93-1.5-12.9-6.53-17.16-9.35-18.25-12.07-1.76-4.41 1.41-8.92 5.81-15.16 3.45-4.89 7.73-10.98 10.89-18.68 3.2-7.79 2.85-12.21 2.58-15.77-.33-4.27-.64-8.3 5.62-13.56 4.75-3.99 29.39-5.82 38.28 1.14a2.996 2.996 0 0 1 .52 4.21 2.996 2.996 0 0 1-4.21.52c-6.58-5.15-27.71-3.52-30.73-1.26-3.88 3.26-3.77 4.69-3.48 8.49.31 3.97.73 9.4-3.01 18.51-3.42 8.33-7.92 14.72-11.54 19.86-2.61 3.7-5.55 7.88-5.18 9.37 1.58 2.04 11.97 7.31 15.42 9.05 1.27.64 2.34 1.18 3.06 1.57 9.11 4.88 27.27 6.32 30.03 5.04 9.78-5.45 23.06-29.85 24.58-50.54.51-6.98-.15-16.28-6.26-20.97a3.006 3.006 0 0 1-.55-4.21 3.006 3.006 0 0 1 4.21-.55c6.51 5 9.48 14.05 8.58 26.17-1.58 21.41-15.03 48.31-27.67 55.36-1.41.77-4.1 1.14-7.47 1.14Z" fill="#CCC"/><path d="M83.84 114.21c-1.95 0-3.74-1.27-4.32-3.23L69.04 75.27c-.7-2.38.67-4.89 3.05-5.58 2.38-.7 4.89.67 5.58 3.05l10.48 35.71c.7 2.38-.67 4.89-3.05 5.58-.42.12-.84.18-1.26.18ZM89.61 136.18a7.94 7.94 0 1 0 0-15.88 7.94 7.94 0 0 0 0 15.88ZM185 185c6.627 0 12-4.701 12-10.5s-5.373-10.5-12-10.5-12 4.701-12 10.5 5.373 10.5 12 10.5Z" fill="#534741"/><path d="M160.01 129.13c1.933 0 3.5-1.24 3.5-2.77s-1.567-2.77-3.5-2.77-3.5 1.24-3.5 2.77 1.567 2.77 3.5 2.77ZM207.74 127.38c1.933 0 3.5-1.24 3.5-2.77s-1.567-2.77-3.5-2.77-3.5 1.24-3.5 2.77 1.567 2.77 3.5 2.77Z" fill="#fff"/></svg>
